<svg width="30" height="30" viewBox="0 0 30 30" fill="none" xmlns="http://www.w3.org/2000/svg">
<path d="M26.8001 13.4L7.45006 3.72501C7.18902 3.60407 6.90187 3.55034 6.61476 3.56871C6.32765 3.58707 6.04969 3.67696 5.80619 3.83019C5.56269 3.98341 5.36138 4.1951 5.22058 4.44599C5.07979 4.69689 5.00398 4.97901 5.00006 5.26668V24.6083C4.99762 24.9036 5.0714 25.1946 5.21427 25.453C5.35713 25.7115 5.56425 25.9287 5.81561 26.0837C6.06696 26.2387 6.35405 26.3262 6.64913 26.3379C6.94421 26.3495 7.23729 26.2848 7.50006 26.15L26.8001 16.475C27.086 16.3315 27.3263 16.1113 27.4943 15.8391C27.6622 15.5668 27.7512 15.2532 27.7512 14.9333C27.7512 14.6135 27.6622 14.2999 27.4943 14.0276C27.3263 13.7554 27.086 13.5352 26.8001 13.3917V13.4Z" fill="#F8F8F8"/>
</svg>
