<svg width="24" height="24" viewBox="0 0 24 24" fill="none" xmlns="http://www.w3.org/2000/svg">
<g clip-path="url(#clip0)">
<path d="M2.25 2.25C1.80499 2.25 1.36998 2.38196 0.999968 2.62919C0.629957 2.87643 0.341569 3.22783 0.171272 3.63896C0.000974894 4.0501 -0.0435826 4.5025 0.0432341 4.93895C0.130051 5.37541 0.344343 5.77632 0.659011 6.09099C0.973679 6.40566 1.37459 6.61995 1.81105 6.70677C2.24751 6.79358 2.69991 6.74903 3.11104 6.57873C3.52217 6.40843 3.87357 6.12004 4.12081 5.75003C4.36804 5.38002 4.5 4.94501 4.5 4.5C4.5 3.90326 4.26295 3.33097 3.84099 2.90901C3.41903 2.48705 2.84674 2.25 2.25 2.25ZM2.25 9.75C1.80499 9.75 1.36998 9.88196 0.999968 10.1292C0.629957 10.3764 0.341569 10.7278 0.171272 11.139C0.000974894 11.5501 -0.0435826 12.0025 0.0432341 12.439C0.130051 12.8754 0.344343 13.2763 0.659011 13.591C0.973679 13.9057 1.37459 14.12 1.81105 14.2068C2.24751 14.2936 2.69991 14.249 3.11104 14.0787C3.52217 13.9084 3.87357 13.62 4.12081 13.25C4.36804 12.88 4.5 12.445 4.5 12C4.5 11.4033 4.26295 10.831 3.84099 10.409C3.41903 9.98705 2.84674 9.75 2.25 9.75ZM2.25 17.25C1.80499 17.25 1.36998 17.382 0.999968 17.6292C0.629957 17.8764 0.341569 18.2278 0.171272 18.639C0.000974894 19.0501 -0.0435826 19.5025 0.0432341 19.939C0.130051 20.3754 0.344343 20.7763 0.659011 21.091C0.973679 21.4057 1.37459 21.62 1.81105 21.7068C2.24751 21.7936 2.69991 21.749 3.11104 21.5787C3.52217 21.4084 3.87357 21.12 4.12081 20.75C4.36804 20.38 4.5 19.945 4.5 19.5C4.5 18.9033 4.26295 18.331 3.84099 17.909C3.41903 17.4871 2.84674 17.25 2.25 17.25ZM23.25 18H8.25C8.05109 18 7.86032 18.079 7.71967 18.2197C7.57902 18.3603 7.5 18.5511 7.5 18.75V20.25C7.5 20.4489 7.57902 20.6397 7.71967 20.7803C7.86032 20.921 8.05109 21 8.25 21H23.25C23.4489 21 23.6397 20.921 23.7803 20.7803C23.921 20.6397 24 20.4489 24 20.25V18.75C24 18.5511 23.921 18.3603 23.7803 18.2197C23.6397 18.079 23.4489 18 23.25 18ZM23.25 3H8.25C8.05109 3 7.86032 3.07902 7.71967 3.21967C7.57902 3.36032 7.5 3.55109 7.5 3.75V5.25C7.5 5.44891 7.57902 5.63968 7.71967 5.78033C7.86032 5.92098 8.05109 6 8.25 6H23.25C23.4489 6 23.6397 5.92098 23.7803 5.78033C23.921 5.63968 24 5.44891 24 5.25V3.75C24 3.55109 23.921 3.36032 23.7803 3.21967C23.6397 3.07902 23.4489 3 23.25 3V3ZM23.25 10.5H8.25C8.05109 10.5 7.86032 10.579 7.71967 10.7197C7.57902 10.8603 7.5 11.0511 7.5 11.25V12.75C7.5 12.9489 7.57902 13.1397 7.71967 13.2803C7.86032 13.421 8.05109 13.5 8.25 13.5H23.25C23.4489 13.5 23.6397 13.421 23.7803 13.2803C23.921 13.1397 24 12.9489 24 12.75V11.25C24 11.0511 23.921 10.8603 23.7803 10.7197C23.6397 10.579 23.4489 10.5 23.25 10.5Z" fill="#F8F8F8"/>
</g>
<defs>
<clipPath id="clip0">
<rect width="24" height="24" fill="white"/>
</clipPath>
</defs>
</svg>
