<svg width="24" height="24" viewBox="0 0 24 24" fill="none" xmlns="http://www.w3.org/2000/svg">
<path d="M21.743 12.3309L12.743 2.3309C12.364 1.9089 11.636 1.9089 11.257 2.3309L2.25698 12.3309C2.12744 12.4745 2.04241 12.6526 2.01223 12.8437C1.98205 13.0347 2.00802 13.2304 2.08698 13.4069C2.24698 13.7679 2.60498 13.9999 2.99998 13.9999H4.99998V20.9999C4.99998 21.2651 5.10534 21.5195 5.29288 21.707C5.48041 21.8945 5.73477 21.9999 5.99998 21.9999H8.99998C9.2652 21.9999 9.51955 21.8945 9.70709 21.707C9.89463 21.5195 9.99998 21.2651 9.99998 20.9999V16.9999H14V20.9999C14 21.2651 14.1053 21.5195 14.2929 21.707C14.4804 21.8945 14.7348 21.9999 15 21.9999H18C18.2652 21.9999 18.5196 21.8945 18.7071 21.707C18.8946 21.5195 19 21.2651 19 20.9999V13.9999H21C21.1937 14.0007 21.3834 13.9452 21.546 13.8401C21.7087 13.7349 21.8372 13.5847 21.916 13.4078C21.9947 13.2309 22.0203 13.0348 21.9896 12.8436C21.9589 12.6524 21.8732 12.4743 21.743 12.3309V12.3309Z" fill="#F8F8F8"/>
</svg>
